<svg xmlns="http://www.w3.org/2000/svg" width="60" height="60"><path d="M29.99 5c-11 0-20 4.5-20 10v.3c3 30.5 18.7 39.1 19.9 39.7h.1s17-8 20-40c.5-5.5-9-10-20-10zm0 44c-1-.5-13.6-7.3-16-31.7v-.2c0-4.4 7.2-8 16-8s16.4 3.6 16 8c-2.4 25.5-16 31.9-16 31.9z" fill="#d0cfce"/><path d="M28.99 12l3 4-3 4 3 4-3 4 3 4-3 4 3 4-3 4 1 5.3s-15-11-16-32c0 0 0-8 16-8z" fill="#ea5a47"/><path d="M29.99 9.3l-1 2.7 3 4-3 4 3 4-3 4 3 4-3 4 3 4-3 4 1 5s13.8-9 16-32c0 0-.8-7-16-7.7z" fill="#d22f27"/><path stroke-miterlimit="10" d="M29.89 55c-1.2-.7-16.9-9.2-19.9-39.7V15c0-5.5 9-10 20-10s20.5 4.5 20 10c-3 32-20 40-20.1 40z" fill="none" stroke="#000" stroke-width="2" stroke-linecap="round" stroke-linejoin="round"/><path stroke-miterlimit="10" d="M29.89 49c-1-.5-13.5-7.3-15.9-31.7v-.2c0-4.4 7.2-8 16-8s16.4 3.6 16 8c-2.4 25.5-16 31.9-16.1 31.9z" fill="none" stroke="#000" stroke-width="2" stroke-linecap="round" stroke-linejoin="round"/></svg>