<svg xmlns="http://www.w3.org/2000/svg" width="16pt" height="16pt" viewBox="0 0 16 16"><path d="M7.578 1.078a12.18 12.18 0 0 1-.25.016 7.882 7.882 0 0 0-.578.05c-.008.004-.047.008-.086.012a3.759 3.759 0 0 0-.36.051c-.03.004-.093.016-.136.023-.043.008-.094.016-.11.02-.03.008-.09.02-.156.031a.57.57 0 0 0-.066.016l-.09.02c-.07.015-.098.019-.16.038a.761.761 0 0 0-.09.024c-.11.027-.148.039-.168.043l-.066.02c-.028.007-.063.019-.078.023a3.19 3.19 0 0 0-.137.043 3.72 3.72 0 0 1-.133.043c-.016.008-.055.02-.086.031a9.127 9.127 0 0 0-.266.098c-.023.011-.058.023-.085.039l-.059.023c-.164.07-.457.215-.543.27-.02.011-.031.02-.035.02a7.93 7.93 0 0 0-.242.148l-.2.14a.668.668 0 0 1-.054.043.71.71 0 0 0-.059.047 3.086 3.086 0 0 0-.422.414c-.015.02-.035.04-.035.043a2.104 2.104 0 0 0-.094.13c0 .003-.015.023-.03.046-.017.023-.032.043-.032.047 0 0-.012.027-.027.05a2.337 2.337 0 0 0-.13.262 1.736 1.736 0 0 0-.109.746c.008.051.012.102.035.325 0 .015.008.078.016.132.008.055.016.13.02.168.003.036.011.086.015.118l.02.144c.011.09.02.137.035.25l.015.106.016.097c.004.028.012.082.02.125.007.043.015.094.02.117.003.02.01.075.019.114.008.039.015.101.023.133.008.03.016.09.024.128.011.075.02.106.039.2a5.404 5.404 0 0 0 .086.414c.003.027.015.078.023.113l.02.09c.003.016.011.05.02.082l.019.086c.007.015.011.047.015.062.004.016.012.055.02.082l.02.079.015.062c.004.02.016.055.02.082.019.066.042.164.062.23.004.02.016.06.023.086l.02.07.02.067c.007.027.015.063.023.082.004.02.016.055.023.082a2.342 2.342 0 0 0 .04.133c.007.027.019.059.023.074l.023.074c.016.055.075.235.082.258.004.008.012.035.02.059.008.023.02.055.023.07.02.051.067.192.075.215.003.023.011.035.035.094a.103.103 0 0 1 .011.039.03.03 0 0 0 .008.015.03.03 0 0 1 .008.02.09.09 0 0 0 .012.035.078.078 0 0 1 .011.031c0 .008.004.024.012.04.02.046.027.058.043.105.008.023.02.05.024.059.003.011.015.039.039.101.007.016.054.133.062.156.059.137.156.371.168.403.035.07.059.125.09.191l.05.113a47.918 47.918 0 0 0 .372.735c.015.023.031.054.039.066.012.024.035.063.09.16.011.024.035.063.047.086l.035.055c0 .008.054.094.113.191l.117.192c.024.039.344.511.39.57.005.012.032.043.056.074.046.067.257.344.28.371.009.008.02.024.024.028s.024.023.04.047c.015.02.034.046.042.054.02.02.11.13.133.157a8.3 8.3 0 0 0 .516.55 7.553 7.553 0 0 0 .726.653c.028.023.059.043.067.05.023.024.308.23.375.278.035.02.105.066.16.101.054.032.105.063.113.07l.117.067.043.024.051-.012c.09-.024.148-.035.164-.035a.89.89 0 0 0 .164-.082c.094-.051.266-.16.371-.235.031-.023.067-.047.074-.054.012-.008.114-.082.141-.106.004 0 .031-.023.059-.043.027-.02.05-.039.054-.043l.04-.031c.035-.027.21-.172.218-.18l.063-.055c.183-.16.492-.46.672-.656l.101-.11a7.83 7.83 0 0 0 .18-.206c.015-.02.07-.082.12-.145l.122-.148c.016-.02.031-.04.035-.043.004-.008.012-.016.016-.024.011-.011.12-.156.136-.18.008-.007.02-.023.028-.03.008-.008.02-.028.031-.043a.168.168 0 0 1 .027-.04c.004-.003.016-.023.028-.039.011-.015.047-.066.078-.113.035-.047.082-.113.101-.144l.047-.063s.004-.004.004-.008.02-.039.047-.074c.047-.074.113-.18.129-.2.004-.007.04-.062.074-.12.04-.063.07-.114.074-.121 0-.008.012-.024.02-.035.008-.012.02-.028.02-.036.007-.011.058-.101.074-.125.004-.007.011-.015.011-.023.004-.008.016-.024.024-.04.016-.023.035-.062.086-.155a13.392 13.392 0 0 0 .434-.855c.007-.024.03-.067.042-.098.016-.032.036-.07.04-.083a.88.88 0 0 1 .035-.078l.023-.054.024-.055.082-.195c.023-.059.046-.121.054-.133.004-.012.016-.035.02-.05.004-.017.015-.04.02-.052.003-.011.015-.039.023-.058.008-.02.02-.047.023-.059.004-.012.02-.05.031-.082.012-.031.028-.074.032-.09l.039-.101c.035-.09.05-.145.054-.157.004-.007.008-.023.012-.03.012-.024.047-.13.055-.157.004-.012.008-.031.015-.043l.02-.066c.008-.028.02-.051.02-.055a.03.03 0 0 0 .007-.02c0-.008.004-.027.012-.039a.692.692 0 0 1 .023-.066c.004-.024.02-.07.032-.11.011-.039.027-.082.031-.097a.087.087 0 0 0 .012-.04c0-.003.004-.023.011-.042a3.63 3.63 0 0 0 .063-.215l.02-.063.015-.05c.004-.016.012-.051.02-.078.007-.028.015-.06.02-.07.003-.013.015-.067.03-.118.016-.05.028-.11.032-.129.004-.016.007-.035.011-.039.004-.004.008-.023.012-.039.004-.02.012-.055.02-.082l.043-.184a.151.151 0 0 1 .011-.046c.004-.004.008-.024.012-.04l.02-.09.02-.097a.57.57 0 0 1 .015-.066c.004-.012.011-.051.02-.086l.019-.09c.004-.016.008-.043.011-.063.004-.02.008-.047.012-.062l.02-.09.02-.098c.003-.023.011-.058.015-.078.012-.07.023-.144.031-.18a18.733 18.733 0 0 0 .125-.761c.004-.028.008-.067.012-.086l.012-.086c.003-.027.011-.086.02-.137.003-.05.015-.121.019-.156l.015-.129c.004-.035.012-.11.02-.168a5.07 5.07 0 0 0 .02-.184c.003-.043.011-.109.015-.144A1.597 1.597 0 0 0 13.32 3a2.249 2.249 0 0 0-.437-.5 2.344 2.344 0 0 0-.106-.09l-.05-.039a4.41 4.41 0 0 0-.215-.16 5.41 5.41 0 0 0-.153-.098c-.007 0-.023-.011-.035-.02-.011-.007-.027-.019-.035-.019-.008-.004-.023-.015-.039-.023a5.371 5.371 0 0 0-.426-.223c-.144-.066-.133-.058-.195-.086-.07-.031-.078-.031-.094-.039a.272.272 0 0 0-.05-.02l-.06-.023c-.023-.008-.046-.02-.12-.047-.016-.008-.047-.015-.07-.023-.024-.008-.047-.016-.051-.02a.03.03 0 0 0-.02-.008.087.087 0 0 1-.039-.011l-.273-.086c-.02-.004-.055-.016-.082-.024a2.342 2.342 0 0 1-.067-.02c-.012-.003-.043-.01-.07-.019-.028-.007-.067-.02-.09-.023-.02-.008-.066-.016-.098-.024-.03-.007-.066-.015-.078-.02a.092.092 0 0 0-.031-.007.217.217 0 0 1-.059-.012c-.035-.007-.078-.02-.199-.043a8.392 8.392 0 0 0-.226-.043c-.04-.007-.102-.015-.137-.023-.067-.012-.13-.02-.27-.039-.05-.008-.113-.016-.144-.02a9.571 9.571 0 0 0-.617-.054l-.274-.016a14.77 14.77 0 0 0-.832 0zm.332 11.559c0 .008-.004.004-.004-.008s.004-.02.004-.016c.004.008.004.02 0 .024zm0 0"/></svg>